<svg xmlns="http://www.w3.org/2000/svg" viewBox="622 562 181 43.9">
  <defs>
    <style>
      .cls-1 {
        fill: #313131;
      }
    </style>
  </defs>
  <path id="Totem_Logo" class="cls-1" d="M122,32.1a7.877,7.877,0,0,0-4-1H104.6a7.613,7.613,0,0,0-2.1.3,6.69,6.69,0,0,0-1.7.7,3.447,3.447,0,0,0-1.2,1.2,2.822,2.822,0,0,0-.4,1.5V45.5a2.41,2.41,0,0,0,.4,1.5,6.789,6.789,0,0,0,1.2,1.2,8.865,8.865,0,0,0,1.7.8,7.612,7.612,0,0,0,2.1.3H118a14.978,14.978,0,0,0,2.2-.2,4.842,4.842,0,0,0,1.8-.7,4.263,4.263,0,0,0,1.2-1.1,2.726,2.726,0,0,0,.4-1.6V34.9A2.906,2.906,0,0,0,122,32.1Zm-4.5,13.4H105.3V34.9h12.2ZM78.1,31.1H98.5v.8a2.969,2.969,0,0,1-.5,1.8,3.805,3.805,0,0,1-1.3.9,4.529,4.529,0,0,1-1.6.3c-.6,0-1,.1-1.4.1H89.5V45.6a3.872,3.872,0,0,1-.9,2.9,4.951,4.951,0,0,1-3.4.9H83.4V34.9H74.1v-.5a2.805,2.805,0,0,1,1.1-2.6A4.241,4.241,0,0,1,78.1,31.1Zm96.6,2.3a2.822,2.822,0,0,1,.4,1.5V45.5a2.934,2.934,0,0,1-.4,1.6,3.447,3.447,0,0,1-1.2,1.2,8.865,8.865,0,0,1-1.7.8,7.612,7.612,0,0,1-2.1.3H156.3a14.978,14.978,0,0,1-2.2-.2,5.626,5.626,0,0,1-1.8-.7,3.447,3.447,0,0,1-1.2-1.2,3.064,3.064,0,0,1-.4-1.7H169V42.2H157.4V38.4H169V35H150.7a3.105,3.105,0,0,1,1.5-2.8,6.78,6.78,0,0,1,4-1h13.4a7.613,7.613,0,0,1,2.1.3,6.712,6.712,0,0,1,1.7.8A2.365,2.365,0,0,1,174.7,33.4Zm-45.6-2.3h20.4v.8a2.969,2.969,0,0,1-.5,1.8,3.805,3.805,0,0,1-1.3.9,4.529,4.529,0,0,1-1.6.3c-.6,0-1,.1-1.4.1h-4.2V45.6a3.872,3.872,0,0,1-.9,2.9,4.951,4.951,0,0,1-3.4.9h-1.8V34.9h-9.3v-.5a2.805,2.805,0,0,1,1.1-2.6A4.415,4.415,0,0,1,129.1,31.1Zm74.8,0V49.3h-.6a13.611,13.611,0,0,1-2.1-.2,5.438,5.438,0,0,1-1.7-.7,3.447,3.447,0,0,1-1.2-1.2,3.064,3.064,0,0,1-.4-1.7V38.1l-7.2,8.1-7.3-8.1v7.4a3.064,3.064,0,0,1-.4,1.7,4.561,4.561,0,0,1-1.2,1.2,7.51,7.51,0,0,1-1.8.7,7.845,7.845,0,0,1-2.2.2h-.5V31.1h2.4a9.971,9.971,0,0,1,1.6.2,5.228,5.228,0,0,1,1.6.6,3.269,3.269,0,0,1,1.5,1.1l6.2,6.5,6.2-6.5a4.177,4.177,0,0,1,1.5-1.1c.6-.2,1.1-.4,1.7-.6a9.971,9.971,0,0,1,1.6-.2h2.3ZM41.8,26.7l-2.5-2.5V20.6l2.5,2.5,2.5-2.5v3.6ZM38.7,48.6l3-3,3,3L48,45.3V41.7l2.5-2.5V57L48,59.5V48.9l-2.5,2.5V62.1l-2.4,2.4H43V50.4l-1.3-1.3-1.3,1.3V64.5h-.1L38,62.1V51.4l-2.5-2.5V59.6L32.9,57V39.2l2.5,2.5v3.6ZM22.9,31.4l7.6-7.6V54.4L27.9,52V30l-2.5,2.5v17L22.9,47Zm30.2-7.5,7.6,7.6V47l-2.5,2.5v-17L55.6,30V52l-2.5,2.5ZM43,36.1l7.6-7.6v3.6l-5,5h0v4.6l-3.8,3.8L38,41.8h0V37.2h0l-5-5V28.6l7.6,7.6v4.6h0l1.3,1.3,1.3-1.3h0V36.1Zm-1.2-5.9,8.8-8.8V25l-8.8,8.8L32.9,25V21.4Z" transform="translate(599.1 541.4)"/>
</svg>
